<svg xmlns="http://www.w3.org/2000/svg" viewBox="0 0 512 512">
    <path fill="#fff" fill-rule="nonzero"
          d="M256 0c70.678 0 134.697 28.664 181.017 74.983C483.336 121.303 512 185.322 512 256s-28.664 134.687-74.983 181.006c-46.32 46.319-110.339 74.983-181.017 74.983s-134.697-28.664-181.017-74.983C28.664 390.687 0 326.678 0 256S28.664 121.303 74.983 74.983C121.303 28.664 185.322 0 256 0zm-19.161 136.449c0-10.573 8.588-19.161 19.161-19.161 10.573 0 19.161 8.588 19.161 19.161v62.547c0 10.573-8.588 19.161-19.161 19.161-10.573 0-19.161-8.588-19.161-19.161v-62.547zm72.942 52.453c-8.176-6.647-9.425-18.693-2.777-26.868 6.647-8.175 18.693-9.424 26.868-2.777 14.254 11.566 25.875 26.199 33.794 42.84 7.674 16.116 11.979 34.14 11.979 53.123 0 34.14-13.853 65.056-36.215 87.419l-1.171 1.081c-22.306 21.738-52.766 35.133-86.259 35.133-34.062 0-64.99-13.863-87.385-36.259-22.407-22.318-36.26-53.234-36.26-87.374 0-18.894 4.294-36.862 11.945-52.967 7.93-16.697 19.53-31.363 33.706-42.907 8.175-6.647 20.22-5.398 26.867 2.778 6.648 8.175 5.399 20.22-2.776 26.867-9.759 7.953-17.757 18.058-23.221 29.568-5.243 11.042-8.198 23.488-8.198 36.661 0 23.555 9.569 44.891 24.994 60.316 15.381 15.47 36.716 24.994 60.328 24.994 23.165 0 44.133-9.179 59.435-24.046l.893-.948c15.425-15.425 24.994-36.761 24.994-60.316 0-13.15-2.967-25.586-8.231-36.661a85.608 85.608 0 00-23.31-29.657zm102.967-89.649C372.641 59.146 317.209 34.33 256 34.33c-61.209 0-116.641 24.816-156.748 64.923C59.146 139.36 34.33 194.791 34.33 256c0 61.209 24.816 116.63 64.922 156.737C139.359 452.843 194.791 477.66 256 477.66c61.209 0 116.641-24.817 156.748-64.923C452.854 372.63 477.67 317.209 477.67 256c0-61.209-24.816-116.64-64.922-156.747z"/>
</svg>